# xmcd
#
# Track frame offsets:
#	150
#	26605
#	45582
#	71630
#	82167
#
# Disc length: 1295 seconds
#
# Revision: 0
# Processed by: cddbd v1.4PL0 Copyright (c) Steve Scherf et al.
# Submitted via: dBpowerAMP V4.0
#
DISCID=3d050d05
DTITLE=Various Artist - Alternativa!
DYEAR=1900
DGENRE=AlternRock
TTITLE0=Mercury Rev-The Funny Bird
TTITLE1=Scutt4-Hallo Doctor
TTITLE2=High Liamas-Checking In,Checking Out
TTITLE3=Olivia Tremor Contol-Can You Come Down With Us
TTITLE4=Stereophonics-Local Boy In The Photograph
EXTD=
EXTT0=
EXTT1=
EXTT2=
EXTT3=
EXTT4=
PLAYORDER=
